<svg width="903" height="903" viewBox="0 0 903 903" fill="none" xmlns="http://www.w3.org/2000/svg">
<g opacity="0.1">
<circle cx="451.402" cy="451.402" r="451.402" fill="white"/>
<circle cx="451.402" cy="451.402" r="451.402" fill="white"/>
</g>
<circle cx="449.404" cy="449.404" r="300.935" fill="white"/>
<circle cx="449.404" cy="449.404" r="300.935" fill="url(#paint0_linear_13_294)"/>
<g filter="url(#filter0_d_13_294)">
<path d="M532.931 420.511C532.438 419.645 531.724 418.925 530.86 418.424C529.996 417.923 529.015 417.659 528.015 417.659H453.998L466.407 323.242C466.54 321.978 466.242 320.707 465.562 319.632C464.881 318.557 463.857 317.742 462.654 317.318C461.452 316.893 460.141 316.884 458.932 317.291C457.724 317.699 456.688 318.5 455.992 319.565L365.979 476.603C365.453 477.456 365.164 478.433 365.143 479.433C365.122 480.434 365.37 481.422 365.86 482.296C366.351 483.169 367.066 483.897 367.933 484.403C368.8 484.91 369.787 485.177 370.792 485.177H443.703L433.869 579.736C433.772 580.995 434.101 582.25 434.804 583.302C435.506 584.354 436.542 585.141 437.745 585.539C438.949 585.937 440.252 585.923 441.446 585.498C442.641 585.074 443.658 584.264 444.337 583.198L532.863 426.176C533.377 425.322 533.653 424.348 533.665 423.353C533.677 422.358 533.424 421.377 532.931 420.511Z" fill="white"/>
</g>
<defs>
<filter id="filter0_d_13_294" x="353.142" y="308.992" width="192.523" height="292.835" filterUnits="userSpaceOnUse" color-interpolation-filters="sRGB">
<feFlood flood-opacity="0" result="BackgroundImageFix"/>
<feColorMatrix in="SourceAlpha" type="matrix" values="0 0 0 0 0 0 0 0 0 0 0 0 0 0 0 0 0 0 127 0" result="hardAlpha"/>
<feOffset dy="4"/>
<feGaussianBlur stdDeviation="6"/>
<feComposite in2="hardAlpha" operator="out"/>
<feColorMatrix type="matrix" values="0 0 0 0 0 0 0 0 0 0 0 0 0 0 0 0 0 0 0.25 0"/>
<feBlend mode="normal" in2="BackgroundImageFix" result="effect1_dropShadow_13_294"/>
<feBlend mode="normal" in="SourceGraphic" in2="effect1_dropShadow_13_294" result="shape"/>
</filter>
<linearGradient id="paint0_linear_13_294" x1="449.404" y1="148.469" x2="449.404" y2="750.339" gradientUnits="userSpaceOnUse">
<stop stop-color="#D7CCFF"/>
<stop offset="0.96875" stop-color="#9B7EFF"/>
</linearGradient>
</defs>
</svg>
